PathFileType	4	(X/Y/Z)	Patient4_TMGait_0pt7_01_right_36.trc.trc
DataRate	CameraRate	NumFrames	NumMarkers	Units	OrigDataRate	OrigDataStartFrame	OrigNumFrames
81.871345029240	81.871345029240	6	33	mm	81.871345029240	36	       141
Frame#	Time	Sacral			L.Shoulder			Chest			R.Shoulder			Neck			R.ASIS			L.ASIS			R.Thigh.Superior			R.Thigh.Lateral			R.Thigh.Inferior			R.Patella			L.Thigh.Superior			L.Thigh.Lateral			L.Thigh.Inferior			L.Patella			L.Shank.Superior			L.Shank.Lateral			L.Shank.Inferior			R.Shank.Superior			R.Shank.Lateral			R.Shank.Inferior			R.Heel			R.Midfoot.Superior			R.Midfoot.Lateral			R.Toe			L.Heel			L.Midfoot.Lateral			L.Midfoot.Superior			L.Toe			L.Elbow			L.Wrist			R.Elbow			R.Wrist			
		X1	Y1	Z1	X2	Y2	Z2	X3	Y3	Z3	X4	Y4	Z4	X5	Y5	Z5	X6	Y6	Z6	X7	Y7	Z7	X8	Y8	Z8	X9	Y9	Z9	X10	Y10	Z10	X11	Y11	Z11	X12	Y12	Z12	X13	Y13	Z13	X14	Y14	Z14	X15	Y15	Z15	X16	Y16	Z16	X17	Y17	Z17	X18	Y18	Z18	X19	Y19	Z19	X20	Y20	Z20	X21	Y21	Z21	X22	Y22	Z22	X23	Y23	Z23	X24	Y24	Z24	X25	Y25	Z25	X26	Y26	Z26	X27	Y27	Z27	X28	Y28	Z28	X29	Y29	Z29	X30	Y30	Z30	X31	Y31	Z31	X32	Y32	Z32	X33	Y33	Z33	

36	41.407500000000	856.757184229689	993.399066084182	506.777255181771	1047.522048804644	1420.242625163648	322.587769596794	1144.436534367995	1346.959299830712	487.132795948425	1058.508623942397	1428.360454246366	656.235423151058	1053.226275595705	1482.316673850496	475.825684091405	1085.711988706511	934.477891475619	627.022416747040	1072.373279464387	949.427338776398	350.635819768493	1155.304216119132	751.137487895555	599.609557298721	1090.048926220274	632.812039239472	658.163273196420	1176.917594892710	592.710663344825	580.628829682458	1191.016781193078	503.735180436250	587.543834871215	1108.023171144618	732.695813617745	374.568141279276	1018.677299749727	620.947180580595	305.905216878361	1101.879097700859	533.205265784179	363.161007452059	1091.358134007734	447.329493402323	359.962428174920	1020.641467628273	391.279670069464	352.775283760431	880.775410815899	352.603878550943	299.723088853505	860.627407300779	226.381498277291	358.112454159160	1170.412435368092	412.630977064113	595.679911025153	1106.964881167398	302.785338029769	655.506341487175	1161.995661113352	212.380160182378	595.708059000908	1043.107702647473	42.665358507909	561.189352723319	1212.532436663443	98.936624618169	599.514840728743	1125.640860471167	36.485395748800	636.686119208336	1333.096835810452	50.469176903292	627.607723245332	665.983301736862	162.254983061250	388.603699823383	728.406661207663	118.074791321377	312.358108450416	830.669142055830	129.495330605175	338.737246183944	912.302008819456	32.922649026343	316.906774429945	1027.913251164535	1074.483647380419	200.406617469910	1276.741135003152	1034.248521760137	241.628064736347	933.518313740426	1104.676813335602	768.161309659032	924.749351846557	843.338506422386	774.381420242971	
37	41.419714285714	856.312408766415	995.246514777639	510.874696091521	1045.506704216235	1422.626814989232	326.369118888905	1144.441182367820	1348.352217527489	489.296103837144	1060.879034556901	1429.143135040857	659.879224796018	1053.188198163292	1483.839634334568	479.872947319716	1086.087410206945	936.331141556931	629.163357819643	1071.000928063324	950.664412954381	353.006754386857	1152.869229159680	750.624386260135	603.583605579550	1085.373633072305	633.381638850919	661.024040834413	1172.005747191601	592.255033499240	583.759217831659	1184.678779662077	503.282262373580	590.309715817440	1112.995754002872	736.979310999789	376.861116044252	1029.012339642017	622.306998794235	307.252162887108	1116.168901541014	537.199597514594	363.572924461828	1107.569810369173	449.978783339137	359.699757332519	1035.072742510970	393.762484322937	353.289036391474	892.984576809040	360.090481283349	302.073307423761	869.539399270679	234.234500558759	360.192053820361	1163.436013228023	412.426721264619	598.149461549315	1099.043555542093	302.745697743696	657.291345045637	1153.822523596569	212.281036518381	597.173067110197	1034.541332005769	42.582306178620	561.562702270372	1203.897692914658	99.081210893309	600.000460492630	1117.051289238079	36.435725559675	637.014182355965	1324.461604481805	50.803933589034	627.853948887374	672.775537543566	178.962348794704	393.184938883309	731.928040240462	131.908439576646	315.715182162430	835.603343232340	137.383568567978	340.734567053543	911.070502902448	33.961152230161	316.857003098429	1018.126536712002	1076.658171701121	205.576757060676	1265.328057084427	1023.594537392009	244.975118830379	944.045805777703	1101.418851853829	771.982935367813	943.977755622062	839.812096593574	775.142861426707	
38	41.431928571429	855.700281961789	997.014781315632	514.793609720232	1043.253706057508	1424.861399112739	330.005224362670	1144.298536200092	1349.599828724536	491.228700539942	1063.244702820080	1429.785545177914	663.343056179731	1053.032349633905	1485.254317419052	483.773570607065	1086.217868919384	938.070454550395	631.182411598546	1069.396813257555	951.820300029488	355.283252305537	1150.004545972919	750.068687615534	607.390163549338	1080.391346442724	633.899800945654	663.855811285576	1166.727506791467	591.756308708124	586.847631928797	1177.935541066516	502.814200621357	593.172287750602	1117.680470901115	741.675508983170	378.818652705573	1038.861310519161	624.407719899738	308.169883363577	1129.826687977812	542.076199629517	363.408358034237	1123.405258163855	453.698290630966	358.930896039524	1049.633795484068	397.030948703424	353.403423932386	905.657217462989	367.402956295950	304.267132020228	879.799647963596	241.888997646009	362.283753522065	1156.150331876448	412.207362204319	600.647757249272	1090.832050292595	302.657422715176	659.056528058346	1145.485165064799	212.167956140492	598.668915794440	1025.914653291834	42.503608274173	561.919718828311	1195.237599086689	99.167251618707	600.536824217840	1108.390024414701	36.329866064537	637.332631984699	1315.791508319776	50.976110443397	628.131247955391	681.716715162014	193.710603740786	398.182729208422	737.834914244802	144.620265315947	319.372970588832	842.619035158507	145.245900649625	342.865022334732	912.902338515650	35.832083508691	316.722934450807	1008.341198565909	1078.877138909822	210.550770734567	1252.994695996731	1011.930388552174	248.082604317668	954.958886528658	1098.244188967973	775.852870058891	964.131381020388	836.631088143306	776.088926892821	
39	41.444142857143	854.965793625996	998.652524604530	518.525691132670	1040.818310382538	1426.923903480677	333.483817134983	1144.003501249300	1350.693643438130	492.956012627913	1065.558478543259	1430.288438928900	666.613025383135	1052.781593047191	1486.555305076667	487.507102307219	1086.137050885973	939.690754587974	633.122090549726	1067.570480544092	952.892693040626	357.495923705958	1146.836652834009	749.552719993498	610.896416328934	1075.279538692854	634.390015578039	666.602881376322	1161.233795501507	591.246260645681	589.810722393146	1170.963465917119	502.354150624395	596.034622318800	1122.001667039241	746.742994746605	380.447323034385	1048.029052388025	627.239610922629	308.702231439040	1142.639485944242	547.786995207059	362.690858889735	1138.631907561000	458.452456194213	357.638619028958	1064.116205526349	401.033901571539	353.095096560261	918.596785070774	374.270838206756	306.226638724106	891.381918809567	248.994189513924	364.260422399571	1148.714433597957	411.985584806855	603.092702173508	1082.483699574155	302.559714551277	660.757472352267	1137.083774760151	212.051619917117	600.142314552001	1017.251866113782	42.447741495553	562.260833281164	1186.587361291077	99.208202607506	601.100068827149	1099.688882251866	36.195183157757	637.641389586622	1307.114017711710	51.003453165232	628.422865292085	692.742441030024	205.751563011050	403.341313486528	746.232388207787	155.487354392998	323.142162938401	851.849007327701	152.620654849009	344.979717564228	918.229335193087	38.460902648320	316.487946143482	998.636809172580	1081.085155870426	215.349742633328	1239.637458271117	999.348375260381	250.906233952877	966.223788787611	1095.157261905397	779.650883167803	985.037231319058	833.872273080014	777.211873197274	
40	41.456357142857	854.155083902363	1000.125102812274	522.074698432231	1038.259487368121	1428.809323266693	336.802359718326	1143.553392375108	1351.643517564841	494.516166300535	1067.767795509514	1430.670343755914	669.683177597277	1052.455414517155	1487.746415094090	491.060191212624	1085.882053044435	941.193468797937	635.017982906877	1065.547683410726	953.893808361836	359.668749976025	1143.486119741940	749.129055094288	614.020438782103	1070.161918344304	634.865783701916	669.210867122461	1155.642935937418	590.746386766522	592.583482517946	1163.903391803723	501.919411822604	598.799454120644	1125.908115361423	752.122264266018	381.774966965915	1056.398672803168	630.738295470446	308.911305828482	1154.478796266636	554.237154913042	361.485822843990	1153.086998019558	464.156688159805	355.858790947143	1078.371200302509	405.677470783261	352.377323664573	931.668964400992	380.432006693937	307.877115169860	904.262691348819	255.229280792064	365.996922054346	1141.250760040350	411.770201699505	605.409167245946	1074.113791346635	302.484135372824	662.346945798564	1128.691946436909	211.941275461187	601.544528546600	1008.573298950679	42.424461454408	562.582939544060	1177.968097428842	99.221383412576	601.663893629108	1090.974635030956	36.056182197648	637.936109237569	1298.447375379494	50.923208340217	628.713769940147	705.763841614153	214.535261847009	408.374741168570	757.163859505698	163.924065426124	326.805024156286	863.377628683592	159.067528385232	346.921788734351	927.330633205043	41.647364248626	316.124311561969	989.073725737096	1083.248657361293	220.006874952380	1225.140640773956	985.967449364571	253.404224993062	977.815717313440	1092.174738710943	783.254817188349	1006.569320307531	831.620185782797	778.466960066078	
41	41.468571428571	853.306449944527	1001.414912116297	525.450238300509	1035.633147971259	1430.522261961298	339.966962653765	1142.949160604820	1352.469602908767	495.954979993292	1069.819602371229	1430.957488981270	672.555971023151	1052.066261123816	1488.834102711545	494.427710338765	1085.489129543324	942.579734118374	636.888932819325	1063.367819892264	954.844346240455	361.810447713671	1140.054539586062	748.816511904375	616.725467124676	1065.115128010213	635.332294380544	671.634106407832	1150.038482920998	590.268083967269	595.119729642907	1156.858232812627	501.520018783233	601.382764820598	1129.368215359901	757.734637337770	382.843481646988	1063.925235377660	634.791196970220	308.869812914948	1165.286632279674	561.289190280826	359.897155605188	1166.667498507799	470.681707672697	353.680079727198	1092.299243317967	410.833692194117	351.299681658307	944.794123514741	385.656847926316	309.157189710507	918.409340408743	260.333669453529	367.381627383931	1133.844023422867	411.564331380979	607.535319468307	1065.802942314014	302.450883793331	663.783856964200	1120.357544757517	211.842041429322	602.834875931364	999.893698150599	42.435291984908	562.880879142781	1169.388436761906	99.222451129800	602.203465770678	1082.266735794484	35.931456651296	638.210022101418	1289.800993976305	50.777744488243	628.991512520989	720.678721519768	219.742251347920	412.997634499626	770.610102608683	169.533414308187	330.136202433549	877.227068098965	164.219222600018	348.538663624382	940.305056871356	45.105660945669	315.585521567541	979.693920854681	1085.350591914380	224.559734292754	1209.384734155962	971.943032705129	255.541816127034	989.711305124215	1089.325140230085	786.555082935324	1028.648961327795	829.966466901625	779.768342112641	
